<svg xmlns="http://www.w3.org/2000/svg" width="64.175" height="49.915" viewBox="0 0 64.175 49.915">
  <path id="book_icon" d="M60.412,2.256C54.307,2.6,42.171,3.863,34.68,8.449a1.713,1.713,0,0,0-.81,1.467V50.458a1.763,1.763,0,0,0,2.594,1.5c7.708-3.88,18.855-4.938,24.367-5.228a3.475,3.475,0,0,0,3.345-3.416V5.676a3.493,3.493,0,0,0-3.763-3.42ZM29.5,8.449C22,3.863,9.869,2.6,3.764,2.256A3.494,3.494,0,0,0,0,5.676V43.318a3.473,3.473,0,0,0,3.345,3.416c5.514.29,16.667,1.349,24.375,5.231a1.758,1.758,0,0,0,2.586-1.5V9.9A1.677,1.677,0,0,0,29.5,8.449Z" transform="translate(0 -2.25)" fill="#090721"/>
</svg>
