<svg xmlns="http://www.w3.org/2000/svg" width="37.361" height="38.173" viewBox="0 0 37.361 38.173">
  <g id="google_icon" transform="translate(-1131.5 -771.515)">
    <path id="Path_12" data-name="Path 12" d="M1258.1,857.8a22.1,22.1,0,0,0-.3-3.611h-17.972v7.174h10.29a8.862,8.862,0,0,1-3.817,5.694v4.771h6.139C1256.032,868.506,1258.1,863.607,1258.1,857.8Z" transform="translate(-89.238 -66.771)" fill="#4285f4"/>
    <path id="Path_13" data-name="Path 13" d="M1232.339,879.457a18.179,18.179,0,0,0,12.613-4.629l-6.139-4.771a11.516,11.516,0,0,1-6.473,1.845,11.4,11.4,0,0,1-10.7-7.889h-6.33v4.915A19.058,19.058,0,0,0,1232.339,879.457Z" transform="translate(-81.753 -69.77)" fill="#34a853"/>
    <path id="Path_14" data-name="Path 14" d="M1220.733,858.652a11.065,11.065,0,0,1-.6-3.642,11.5,11.5,0,0,1,.6-3.642v-4.914h-6.33a18.867,18.867,0,0,0,0,17.114Z" transform="translate(-80.851 -64.409)" fill="#fbbc05"/>
    <path id="Path_15" data-name="Path 15" d="M1232.339,838.852a10.353,10.353,0,0,1,7.316,2.863l5.44-5.44a18.246,18.246,0,0,0-12.756-4.978,19.056,19.056,0,0,0-17.034,10.529l6.33,4.914A11.4,11.4,0,0,1,1232.339,838.852Z" transform="translate(-81.753 -59.782)" fill="#ea4335"/>
  </g>
</svg>
