<svg xmlns="http://www.w3.org/2000/svg" width="416.662" height="252.349" viewBox="0 0 416.662 252.349">
  <g id="Group_130" data-name="Group 130" transform="translate(-174.577 -169.65)">
    <path id="Path_25" data-name="Path 25" d="M285.816,279.42c-24.481,1.138-48.491,1.656-62.206.362-18.721-1.761-50.425-15.287-47.315-62.716,2.149-32.727,30.271-46.932,56.362-39.777,8.368,2.3,20.643,5.916,34.493,10.1" transform="translate(0 13.393)" fill="none" stroke="#64cf94" stroke-linecap="round" stroke-width="3"/>
    <path id="Path_26" data-name="Path 26" d="M213.966,200.511c13.125,36.722,26.689,86.75,35.045,111.746" transform="translate(121.744 93.836)" fill="none" stroke="#64cf94" stroke-linecap="round" stroke-width="3"/>
    <path id="Path_27" data-name="Path 27" d="M267.322,230.806" transform="translate(293.211 191.193)" fill="none" stroke="#64cf94" stroke-linecap="round" stroke-width="3"/>
    <path id="Path_28" data-name="Path 28" d="M237.28,184.712a73.844,73.844,0,0,1,19.779-9.8c48.684-14.912,90.113,19.564,98.363,47.4,16.888,56.977-11.448,87.972-13.412,103.306a28.968,28.968,0,0,0,0,7.9,31.953,31.953,0,0,0,7.365,15.8c9.118,11.339,34.733,30.621,43.3,56.716" transform="translate(196.667 0)" fill="none" stroke="#64cf94" stroke-linecap="round" stroke-width="3"/>
    <path id="Path_29" data-name="Path 29" d="M336.081,276.253l-92.253,5.983c-14.752.9-49.54-15.072-49.173-55.713.421-46.165,38.344-54.672,54.769-49.641l52.5,16.421" transform="translate(59.674 13.8)" fill="none" stroke="#64cf94" stroke-linecap="round" stroke-width="3"/>
    <path id="Path_30" data-name="Path 30" d="M415.673,402.859c-17.3-29.592-74.569-123.144-95.022-164.475,0,0-32.319-59.817-36.027-62.893-3.459-2.869-9.927-5.077-14.2-1.3-3.038,2.676-2.419,5.4-2.478,11.941-1.736-1.087-5.284-4.243-8.625-6.464-3.228-2.141-8.153-3.384-11.246-1.5-3.3,2.006-3.62,4.121-4.867,8.453-4.791-2.773-9.064-4.753-15.3-3.7-2.954.5-12.641,5.187-6.249,20.171,0,0,7.85,9.1,10.227,12.995,3.4,5.575,67.57,155.336,68.316,187.625" transform="translate(139.584 2.808)" fill="none" stroke="#64cf94" stroke-linecap="round" stroke-width="3"/>
    <path id="Path_31" data-name="Path 31" d="M225.03,175.559s20.15,12.249,23.373,24.974" transform="translate(157.3 13.649)" fill="none" stroke="#64cf94" stroke-linecap="round" stroke-width="3"/>
    <path id="Path_32" data-name="Path 32" d="M231.124,175.61s10.269,8.781,15.73,26.339" transform="translate(176.884 13.813)" fill="none" stroke="#64cf94" stroke-linecap="round" stroke-width="3"/>
    <ellipse id="Ellipse_5" data-name="Ellipse 5" cx="32.023" cy="39.653" rx="32.023" ry="39.653" transform="translate(185.498 199.289)" fill="none" stroke="#64cf94" stroke-linecap="round" stroke-width="3"/>
    <ellipse id="Ellipse_6" data-name="Ellipse 6" cx="32.023" cy="39.653" rx="32.023" ry="39.653" transform="translate(262.427 201.657)" fill="none" stroke="#64cf94" stroke-linecap="round" stroke-width="3"/>
    <ellipse id="Ellipse_7" data-name="Ellipse 7" cx="11.318" cy="14.204" rx="11.318" ry="14.204" transform="translate(197.005 221.559)" fill="#64cf94"/>
    <ellipse id="Ellipse_8" data-name="Ellipse 8" cx="11.318" cy="14.204" rx="11.318" ry="14.204" transform="translate(269.846 220.162)" fill="#64cf94"/>
    <path id="Path_33" data-name="Path 33" d="M248.98,209.187s20.133-1.3,27.309-15.283" transform="translate(234.266 72.604)" fill="none" stroke="#64cf94" stroke-linecap="round" stroke-width="3"/>
  </g>
</svg>
